<svg width="128" height="134" xmlns="http://www.w3.org/2000/svg"><path fill="none" d="M-1-1h130v136H-1z"/><path d="M9 0L0 23v94h32v17h18l17-17h26l35-35V0H9zm107 76L96 96H64l-17 17V96H20V12h96v64z" fill="#6441a4" fill-rule="evenodd"/><g stroke="null" stroke-width=".129"><path fill="none" d="M33.416 13.416h81.167v81.167H33.416z"/><path fill="#6441a4" d="M54.758 81.245l6.212-3.759c1.198 2.125 2.288 3.922 4.903 3.922 2.506 0 4.086-.98 4.086-4.794V50.68h7.628v26.042c0 7.9-4.63 11.497-11.387 11.497-6.102 0-9.644-3.16-11.442-6.974m26.972-.817l6.21-3.596c1.636 2.67 3.76 4.631 7.52 4.631 3.16 0 5.176-1.58 5.176-3.76 0-2.614-2.07-3.54-5.558-5.066l-1.906-.818c-5.503-2.342-9.154-5.284-9.154-11.495 0-5.721 4.359-10.08 11.17-10.08 4.849 0 8.335 1.689 10.841 6.102l-5.938 3.814c-1.308-2.343-2.724-3.269-4.904-3.269-2.233 0-3.65 1.417-3.65 3.269 0 2.288 1.417 3.215 4.685 4.631l1.907.818c6.484 2.778 10.134 5.611 10.134 11.986 0 6.865-5.394 10.624-12.64 10.624-7.083 0-11.66-3.378-13.893-7.791"/></g></svg>